<svg width="315" height="252" viewBox="0 0 315 252" fill="none" xmlns="http://www.w3.org/2000/svg">
<g opacity="0.5">
<path d="M75.6642 0.907227V94.3511H54.4216L54.3978 31.2658L45.9364 94.3511H30.8702L21.9566 32.7057L21.9328 94.3511H0.690186V0.907227H32.1317C33.0599 6.52433 34.0239 13.1411 35.0116 20.7694L38.4628 44.535L44.0442 0.907227H75.6523H75.6642Z" fill="#5F83DE"/>
<path d="M85.411 0.907227H125.933V19.6031H109.712V37.3232H124.885V55.1027H109.712V75.6552H127.551V94.3511H85.4229V0.907227H85.411Z" fill="#5F83DE"/>
<path d="M192.303 0.907227L179.938 94.3511H143.034L128.992 0.907227H154.614C157.589 26.6483 159.719 48.4265 160.993 66.2417C162.242 48.2361 163.575 32.2535 164.991 18.2822L166.681 0.907227L192.303 0.907227Z" fill="#5F83DE"/>
<path d="M107.559 127.562H83.2574V111.317C83.2574 106.593 82.9956 103.653 82.4839 102.475C81.9603 101.309 80.8178 100.714 79.0446 100.714C77.0453 100.714 75.7719 101.428 75.2364 102.844C74.7009 104.272 74.4271 107.342 74.4271 112.079V155.48C74.4271 160.027 74.7009 162.978 75.2364 164.37C75.7719 165.751 76.9858 166.453 78.878 166.453C80.7702 166.453 81.865 165.763 82.4244 164.37C82.9837 162.978 83.2574 159.717 83.2574 154.588V142.842H107.559V146.484C107.559 156.159 106.88 163.014 105.512 167.06C104.143 171.106 101.12 174.652 96.4552 177.699C91.7783 180.746 86.0184 182.269 79.1636 182.269C72.3088 182.269 66.18 180.984 61.5626 178.401C56.9451 175.819 53.8866 172.26 52.3872 167.691C50.8877 163.133 50.1379 156.278 50.1379 147.114V119.814C50.1379 113.078 50.3641 108.033 50.8282 104.665C51.2923 101.297 52.6609 98.0599 54.9577 94.9419C57.2426 91.8239 60.4201 89.3724 64.4782 87.5873C68.5363 85.8022 73.2014 84.9097 78.4734 84.9097C85.6257 84.9097 91.5403 86.2901 96.1934 89.063C100.847 91.8239 103.905 95.2751 105.369 99.4047C106.833 103.534 107.559 109.961 107.559 118.684V127.562Z" fill="#5F83DE"/>
<path d="M158.268 86.8761L172.168 180.32H147.331L146.022 163.528H137.334L135.871 180.32H110.748L123.137 86.8761H158.256H158.268ZM145.391 146.962C144.165 136.383 142.928 123.292 141.69 107.714C139.215 125.613 137.656 138.691 137.025 146.962H145.391Z" fill="#5F83DE"/>
<path d="M251.27 86.8761V180.32H230.028L230.004 117.235L221.542 180.32H206.476L197.563 118.675L197.539 180.32H176.296V86.8761H207.738C208.666 92.4932 209.63 99.11 210.618 106.738L214.069 130.504L219.65 86.8761H251.258H251.27Z" fill="#5F83DE"/>
<path d="M264.289 85.187L288.697 86.865C295.302 87.3172 300.336 88.186 303.823 89.4712C307.298 90.7565 309.868 92.4345 311.511 94.5171C313.165 96.5997 314.212 99.0513 314.653 101.872C315.093 104.704 315.117 109.024 314.712 114.867L314.153 122.983C313.748 128.934 312.832 133.23 311.416 135.872C309.999 138.514 307.595 140.454 304.216 141.679C300.836 142.917 296.492 143.345 291.196 142.977L284.687 142.524L282.104 180.071L257.863 178.405L264.289 85.187ZM287.436 102.812L285.805 126.53C286.496 126.613 287.091 126.673 287.59 126.708C289.816 126.863 291.399 126.423 292.339 125.387C293.279 124.352 293.862 122.103 294.1 118.652L294.624 111C294.838 107.81 294.481 105.704 293.553 104.68C292.624 103.657 290.578 103.026 287.436 102.812Z" fill="#5F83DE"/>
<path d="M258.713 212.09C261.15 213.182 262.89 214.76 263.934 216.823C264.98 218.858 265.159 223.435 264.471 230.553C263.959 235.837 262.96 239.885 261.472 242.698C259.986 245.483 257.691 247.499 254.586 248.746C251.484 249.966 247.619 250.352 242.992 249.904C237.736 249.396 233.687 248.12 230.845 246.076C228.033 244.008 226.271 241.654 225.559 239.016C224.878 236.352 224.843 231.858 225.455 225.534L225.963 220.278L242.554 221.883L241.508 232.683C241.23 235.558 241.217 237.408 241.469 238.234C241.75 239.035 242.48 239.492 243.657 239.606C244.944 239.731 245.84 239.32 246.346 238.374C246.852 237.428 247.307 234.875 247.709 230.714L248.154 226.114C248.401 223.568 248.293 221.679 247.832 220.446C247.371 219.213 246.597 218.364 245.509 217.9C244.424 217.408 242.268 216.978 239.043 216.611L239.977 206.961C243.919 207.342 246.37 207.427 247.33 207.216C248.29 207.005 249.024 206.413 249.533 205.44C250.042 204.467 250.401 202.899 250.61 200.736L250.968 197.04C251.193 194.713 251.095 193.156 250.674 192.369C250.28 191.585 249.576 191.144 248.563 191.046C247.414 190.935 246.581 191.255 246.066 192.006C245.582 192.733 245.216 194.369 244.97 196.916L244.441 202.377L227.851 200.772L228.399 195.105C229.014 188.753 230.879 184.609 233.996 182.673C237.115 180.709 241.836 180.032 248.161 180.644C256.072 181.41 261.289 183.476 263.809 186.842C266.33 190.209 267.324 194.643 266.791 200.146C266.431 203.869 265.663 206.517 264.489 208.089C263.317 209.634 261.392 210.967 258.713 212.09Z" fill="#5F83DE"/>
<path d="M218.55 234.777L217.454 246.111L180.946 242.578L181.864 233.092C194.39 216.453 201.868 206.137 204.299 202.145C206.76 198.127 208.105 194.941 208.333 192.587C208.507 190.78 208.322 189.408 207.777 188.471C207.263 187.509 206.376 186.968 205.116 186.846C203.857 186.724 202.865 187.125 202.14 188.05C201.442 188.977 200.951 190.905 200.668 193.835L200.056 200.159L185.19 198.72L185.425 196.298C185.785 192.574 186.26 189.663 186.85 187.565C187.443 185.439 188.592 183.409 190.3 181.474C192.007 179.539 194.116 178.155 196.629 177.32C199.141 176.485 202.081 176.231 205.449 176.557C212.046 177.195 216.87 179.32 219.92 182.931C222.999 186.517 224.296 190.816 223.812 195.826C223.443 199.631 222.096 203.563 219.769 207.621C217.469 211.681 210.999 220.146 200.358 233.016L218.55 234.777Z" fill="#5F83DE"/>
<path d="M179.987 198.09L177.841 220.266C177.354 225.303 176.725 228.945 175.955 231.192C175.185 233.438 173.841 235.478 171.923 237.309C170.004 239.141 167.785 240.377 165.263 241.017C162.742 241.657 159.976 241.832 156.964 241.54C152.995 241.156 149.739 240.385 147.199 239.228C144.661 238.042 142.705 236.402 141.333 234.308C139.961 232.213 139.049 230.066 138.599 227.867C138.151 225.641 138.154 222.187 138.607 217.505L140.852 194.304C141.442 188.198 142.405 183.677 143.739 180.739C145.101 177.803 147.431 175.569 150.73 174.037C154.056 172.507 157.95 171.959 162.412 172.39C166.053 172.743 169.249 173.701 171.999 175.266C174.752 176.804 176.751 178.558 177.997 180.53C179.243 182.502 180.001 184.662 180.272 187.009C180.569 189.359 180.474 193.053 179.987 198.09ZM163.937 190.9C164.279 187.369 164.314 185.148 164.043 184.237C163.802 183.302 163.052 182.773 161.792 182.651C160.56 182.532 159.693 182.932 159.189 183.85C158.716 184.744 158.314 186.902 157.983 190.324L154.843 222.766C154.47 226.626 154.423 228.97 154.702 229.798C155.008 230.629 155.777 231.104 157.009 231.224C158.241 231.343 159.094 230.956 159.567 230.062C160.041 229.168 160.435 227.092 160.75 223.835L163.937 190.9Z" fill="#5F83DE"/>
<path d="M131.245 226.325L130.148 237.659L93.6414 234.127L94.5593 224.641C107.085 208.002 114.563 197.686 116.994 193.693C119.455 189.676 120.8 186.49 121.028 184.136C121.202 182.329 121.017 180.957 120.472 180.02C119.958 179.058 119.07 178.516 117.811 178.394C116.552 178.272 115.56 178.674 114.835 179.599C114.137 180.526 113.646 182.454 113.363 185.383L112.751 191.707L97.8853 190.269L98.1198 187.846C98.48 184.123 98.9551 181.212 99.545 179.114C100.138 176.988 101.287 174.958 102.994 173.023C104.702 171.088 106.811 169.703 109.324 168.869C111.836 168.034 114.776 167.78 118.144 168.106C124.741 168.744 129.565 170.869 132.614 174.48C135.694 178.066 136.991 182.364 136.506 187.374C136.138 191.18 134.791 195.111 132.464 199.169C130.164 203.23 123.694 211.695 113.053 224.565L131.245 226.325Z" fill="#5F83DE"/>
</g>
</svg>
